<?xml version='1.0' encoding='UTF-8'?>
<svg xmlns="http://www.w3.org/2000/svg" xmlns:inkscape="http://www.inkscape.org/namespaces/inkscape" xmlns:sodipodi="http://sodipodi.sourceforge.net/DTD/sodipodi-0.0.dtd" width="193.29mm" height="272.62mm" viewBox="0 0 193.29 272.62">
  <g inkscape:groupmode="layer" inkscape:label="lamelle-precedente" id="lamelle-precedente" sodipodi:insensitive="true" style="display:inline">
    <path d="M 12.000,195.796 L 12.000,198.383 L 12.000,203.796 L 29.986,201.209 L 65.512,195.796 L 74.137,193.209 L 92.924,187.796 L 98.891,185.209 L 111.664,179.797 L 116.274,177.210 L 126.090,171.797 L 129.806,169.210 L 137.699,163.798 L 140.748,161.211 L 147.217,155.798 L 149.730,153.211 L 155.062,147.799 L 157.123,145.212 L 161.498,139.799 L 163.162,137.212 L 166.702,131.800 L 168.007,129.213 L 170.793,123.800 L 171.767,121.213 L 173.858,115.800 L 174.518,113.213 L 175.952,107.801 L 176.311,105.214 L 177.113,99.801 L 177.177,97.214 L 177.361,91.802 L 177.131,89.215 L 176.701,83.802 L 176.171,81.215 L 175.119,75.803 L 174.283,73.216 L 172.591,67.803 L 171.432,65.216 L 169.069,59.804 L 167.565,57.217 L 164.486,51.804 L 162.603,49.217 L 158.741,43.805 L 156.432,41.217 L 151.692,35.805 L 148.888,33.218 L 143.128,27.805 L 100.832,27.805 L 12.000,27.805 L 12.000,30.392 L 12.000,35.805 L 12.000,38.392 L 12.000,43.805 L 12.000,46.392 L 12.000,51.804 L 12.000,54.391 L 12.000,59.804 L 12.000,62.391 L 12.000,67.803 L 12.000,70.390 L 12.000,75.803 L 12.000,78.390 L 12.000,83.802 L 12.000,86.389 L 12.000,91.802 L 12.000,94.389 L 12.000,99.801 L 12.000,102.388 L 12.000,107.801 L 12.000,110.388 L 12.000,115.800 L 12.000,118.388 L 12.000,123.800 L 12.000,126.387 L 12.000,131.800 L 12.000,134.387 L 12.000,139.799 L 12.000,142.386 L 12.000,147.799 L 12.000,150.386 L 12.000,155.798 L 12.000,158.385 L 12.000,163.798 L 12.000,166.385 L 12.000,171.797 L 12.000,174.384 L 12.000,179.797 L 12.000,182.384 L 12.000,187.796 L 12.000,190.383 Z" style="fill:none;stroke:#e6a0a0;stroke-width:0.6;stroke-dasharray:2,2" />
  </g>
<g inkscape:groupmode="layer" inkscape:label="lamelle-suivante" id="lamelle-suivante" sodipodi:insensitive="true" style="display:inline">
    <path d="M 12.000,197.820 L 12.000,198.193 L 12.000,205.387 L 14.284,205.014 L 54.718,197.820 L 56.015,197.448 L 80.156,190.254 L 81.026,189.882 L 97.077,182.688 L 97.743,182.315 L 109.996,175.122 L 110.531,174.749 L 120.355,167.555 L 120.793,167.183 L 128.837,159.989 L 129.198,159.616 L 135.828,152.423 L 136.124,152.050 L 141.569,144.856 L 141.809,144.484 L 146.221,137.290 L 146.411,136.917 L 149.895,129.724 L 150.038,129.351 L 152.667,122.157 L 152.765,121.785 L 154.589,114.591 L 154.645,114.219 L 155.696,107.025 L 155.711,106.652 L 156.006,99.458 L 155.980,99.086 L 155.525,91.892 L 155.457,91.520 L 154.245,84.326 L 154.134,83.953 L 152.143,76.760 L 151.988,76.387 L 149.183,69.193 L 148.979,68.821 L 145.306,61.627 L 145.050,61.254 L 140.430,54.061 L 140.116,53.688 L 134.435,46.494 L 134.054,46.122 L 127.148,38.928 L 121.174,38.928 L 12.000,38.928 L 12.000,39.301 L 12.000,46.494 L 12.000,46.867 L 12.000,54.061 L 12.000,54.433 L 12.000,61.627 L 12.000,61.999 L 12.000,69.193 L 12.000,69.566 L 12.000,76.760 L 12.000,77.132 L 12.000,84.326 L 12.000,84.698 L 12.000,91.892 L 12.000,92.265 L 12.000,99.458 L 12.000,99.831 L 12.000,107.025 L 12.000,107.397 L 12.000,114.591 L 12.000,114.964 L 12.000,122.157 L 12.000,122.530 L 12.000,129.724 L 12.000,130.096 L 12.000,137.290 L 12.000,137.662 L 12.000,144.856 L 12.000,145.229 L 12.000,152.423 L 12.000,152.795 L 12.000,159.989 L 12.000,160.361 L 12.000,167.555 L 12.000,167.928 L 12.000,175.122 L 12.000,175.494 L 12.000,182.688 L 12.000,183.060 L 12.000,190.254 L 12.000,190.627 Z" style="fill:none;stroke:#a0b8e6;stroke-width:0.6;stroke-dasharray:2,2" />
  </g>
<g inkscape:groupmode="layer" inkscape:label="lamelle-courante" id="lamelle-courante">
    <line x1="12.000" y1="260.617" x2="12.000" y2="12.000" style="stroke:#bbbbbb;stroke-width:0.4;stroke-dasharray:1,2" />
    <path d="M 12.000,197.887 L 12.000,199.336 L 12.000,205.668 L 21.507,204.220 L 60.334,197.887 L 65.361,196.439 L 87.407,190.106 L 90.825,188.658 L 105.619,182.325 L 108.246,180.877 L 119.572,174.544 L 121.684,173.096 L 130.774,166.763 L 132.506,165.315 L 139.952,158.982 L 141.379,157.534 L 147.517,151.201 L 148.688,149.753 L 153.727,143.420 L 154.675,141.972 L 158.755,135.639 L 159.501,134.190 L 162.719,127.858 L 163.278,126.409 L 165.701,120.077 L 166.085,118.628 L 167.758,112.296 L 167.973,110.847 L 168.926,104.515 L 168.976,103.066 L 169.225,96.734 L 169.110,95.285 L 168.660,88.953 L 168.379,87.504 L 167.221,81.172 L 166.769,79.723 L 164.884,73.391 L 164.252,71.942 L 161.607,65.610 L 160.783,64.161 L 157.326,57.829 L 156.293,56.380 L 151.949,50.048 L 150.681,48.599 L 145.344,42.266 L 143.802,40.818 L 137.315,34.485 L 113.543,34.485 L 12.000,34.485 L 12.000,35.934 L 12.000,42.266 L 12.000,43.715 L 12.000,50.048 L 12.000,51.496 L 12.000,57.829 L 12.000,59.277 L 12.000,65.610 L 12.000,67.058 L 12.000,73.391 L 12.000,74.839 L 12.000,81.172 L 12.000,82.620 L 12.000,88.953 L 12.000,90.401 L 12.000,96.734 L 12.000,98.182 L 12.000,104.515 L 12.000,105.963 L 12.000,112.296 L 12.000,113.744 L 12.000,120.077 L 12.000,121.525 L 12.000,127.858 L 12.000,129.306 L 12.000,135.639 L 12.000,137.087 L 12.000,143.420 L 12.000,144.868 L 12.000,151.201 L 12.000,152.649 L 12.000,158.982 L 12.000,160.430 L 12.000,166.763 L 12.000,168.211 L 12.000,174.544 L 12.000,175.993 L 12.000,182.325 L 12.000,183.774 L 12.000,190.106 L 12.000,191.555 Z" style="fill:#d8d8d8;fill-opacity:0.35;stroke:#000000;stroke-width:1.0" />
  </g>
</svg>