<?xml version='1.0' encoding='UTF-8'?>
<svg xmlns="http://www.w3.org/2000/svg" xmlns:inkscape="http://www.inkscape.org/namespaces/inkscape" xmlns:sodipodi="http://sodipodi.sourceforge.net/DTD/sodipodi-0.0.dtd" width="193.29mm" height="272.62mm" viewBox="0 0 193.29 272.62">
  <g inkscape:groupmode="layer" inkscape:label="lamelle-precedente" id="lamelle-precedente" sodipodi:insensitive="true" style="display:inline">
    <path d="M 12.000,153.903 L 12.000,156.251 L 12.000,159.865 L 16.475,157.517 L 22.861,153.903 L 25.792,151.555 L 29.994,147.942 L 31.909,145.594 L 34.651,141.980 L 36.106,139.632 L 38.189,136.018 L 39.353,133.670 L 41.019,130.056 L 41.971,127.708 L 43.335,124.095 L 44.119,121.747 L 45.243,118.133 L 45.888,115.785 L 46.811,112.171 L 47.334,109.823 L 48.083,106.209 L 48.497,103.861 L 49.090,100.248 L 49.404,97.900 L 49.853,94.286 L 50.072,91.938 L 50.386,88.324 L 50.514,85.976 L 50.699,82.362 L 50.739,80.014 L 50.797,76.401 L 50.749,74.053 L 50.682,70.439 L 50.546,68.091 L 50.351,64.477 L 50.125,62.129 L 49.801,58.516 L 49.479,56.168 L 49.019,52.554 L 48.596,50.206 L 47.992,46.592 L 47.459,44.244 L 46.697,40.630 L 46.042,38.282 L 45.104,34.669 L 44.307,32.321 L 43.166,28.707 L 30.349,28.707 L 12.000,28.707 L 12.000,31.055 L 12.000,34.669 L 12.000,37.017 L 12.000,40.630 L 12.000,42.978 L 12.000,46.592 L 12.000,48.940 L 12.000,52.554 L 12.000,54.902 L 12.000,58.516 L 12.000,60.864 L 12.000,64.477 L 12.000,66.825 L 12.000,70.439 L 12.000,72.787 L 12.000,76.401 L 12.000,78.749 L 12.000,82.362 L 12.000,84.710 L 12.000,88.324 L 12.000,90.672 L 12.000,94.286 L 12.000,96.634 L 12.000,100.248 L 12.000,102.596 L 12.000,106.209 L 12.000,108.557 L 12.000,112.171 L 12.000,114.519 L 12.000,118.133 L 12.000,120.481 L 12.000,124.095 L 12.000,126.443 L 12.000,130.056 L 12.000,132.404 L 12.000,136.018 L 12.000,138.366 L 12.000,141.980 L 12.000,144.328 L 12.000,147.942 L 12.000,150.290 Z" style="fill:none;stroke:#e6a0a0;stroke-width:0.6;stroke-dasharray:2,2" />
  </g>
<g inkscape:groupmode="layer" inkscape:label="lamelle-suivante" id="lamelle-suivante" sodipodi:insensitive="true" style="display:inline">
    <path d="M 12.000,119.449 L 12.000,120.010 L 12.000,124.296 L 13.104,123.734 L 24.165,119.449 L 24.894,118.887 L 32.210,114.602 L 32.686,114.040 L 37.456,109.755 L 37.817,109.194 L 41.439,104.908 L 41.728,104.347 L 44.626,100.061 L 44.862,99.500 L 47.232,95.214 L 47.427,94.653 L 49.381,90.367 L 49.541,89.806 L 51.146,85.520 L 51.276,84.959 L 52.578,80.673 L 52.681,80.112 L 53.712,75.826 L 53.790,75.265 L 54.571,70.979 L 54.625,70.418 L 55.171,66.132 L 55.203,65.571 L 55.524,61.285 L 55.535,60.724 L 55.636,56.438 L 55.624,55.877 L 55.508,51.591 L 55.474,51.030 L 55.137,46.744 L 55.081,46.183 L 54.519,41.897 L 54.439,41.336 L 53.641,37.050 L 53.536,36.489 L 52.487,32.203 L 52.355,31.642 L 51.033,27.356 L 50.870,26.795 L 49.242,22.510 L 49.045,21.948 L 47.065,17.663 L 43.886,17.663 L 12.000,17.663 L 12.000,18.224 L 12.000,22.510 L 12.000,23.071 L 12.000,27.356 L 12.000,27.918 L 12.000,32.203 L 12.000,32.765 L 12.000,37.050 L 12.000,37.612 L 12.000,41.897 L 12.000,42.459 L 12.000,46.744 L 12.000,47.306 L 12.000,51.591 L 12.000,52.152 L 12.000,56.438 L 12.000,56.999 L 12.000,61.285 L 12.000,61.846 L 12.000,66.132 L 12.000,66.693 L 12.000,70.979 L 12.000,71.540 L 12.000,75.826 L 12.000,76.387 L 12.000,80.673 L 12.000,81.234 L 12.000,85.520 L 12.000,86.081 L 12.000,90.367 L 12.000,90.928 L 12.000,95.214 L 12.000,95.775 L 12.000,100.061 L 12.000,100.622 L 12.000,104.908 L 12.000,105.469 L 12.000,109.755 L 12.000,110.316 L 12.000,114.602 L 12.000,115.163 Z" style="fill:none;stroke:#a0b8e6;stroke-width:0.6;stroke-dasharray:2,2" />
  </g>
<g inkscape:groupmode="layer" inkscape:label="lamelle-courante" id="lamelle-courante">
    <line x1="12.000" y1="260.617" x2="12.000" y2="12.000" style="stroke:#bbbbbb;stroke-width:0.4;stroke-dasharray:1,2" />
    <path d="M 12.000,137.163 L 12.000,138.553 L 12.000,142.583 L 14.456,141.194 L 22.385,137.163 L 24.002,135.773 L 29.235,131.743 L 30.290,130.353 L 33.704,126.322 L 34.505,124.932 L 37.098,120.902 L 37.739,119.512 L 39.813,115.482 L 40.337,114.092 L 42.034,110.061 L 42.466,108.671 L 43.864,104.641 L 44.219,103.251 L 45.368,99.220 L 45.656,97.830 L 46.589,93.800 L 46.817,92.410 L 47.555,88.380 L 47.727,86.990 L 48.286,82.959 L 48.407,81.569 L 48.798,77.539 L 48.869,76.149 L 49.098,72.118 L 49.121,70.728 L 49.193,66.698 L 49.167,65.308 L 49.083,61.278 L 49.009,59.888 L 48.767,55.857 L 48.643,54.467 L 48.240,50.437 L 48.063,49.047 L 47.491,45.016 L 47.259,43.626 L 46.507,39.596 L 46.214,38.206 L 45.267,34.176 L 44.907,32.786 L 43.741,28.755 L 43.302,27.365 L 41.884,23.335 L 34.827,23.335 L 12.000,23.335 L 12.000,24.725 L 12.000,28.755 L 12.000,30.145 L 12.000,34.176 L 12.000,35.565 L 12.000,39.596 L 12.000,40.986 L 12.000,45.016 L 12.000,46.406 L 12.000,50.437 L 12.000,51.827 L 12.000,55.857 L 12.000,57.247 L 12.000,61.278 L 12.000,62.667 L 12.000,66.698 L 12.000,68.088 L 12.000,72.118 L 12.000,73.508 L 12.000,77.539 L 12.000,78.929 L 12.000,82.959 L 12.000,84.349 L 12.000,88.380 L 12.000,89.769 L 12.000,93.800 L 12.000,95.190 L 12.000,99.220 L 12.000,100.610 L 12.000,104.641 L 12.000,106.031 L 12.000,110.061 L 12.000,111.451 L 12.000,115.482 L 12.000,116.871 L 12.000,120.902 L 12.000,122.292 L 12.000,126.322 L 12.000,127.712 L 12.000,131.743 L 12.000,133.133 Z" style="fill:#d8d8d8;fill-opacity:0.35;stroke:#000000;stroke-width:1.0" />
  </g>
</svg>