<?xml version='1.0' encoding='UTF-8'?>
<svg xmlns="http://www.w3.org/2000/svg" xmlns:inkscape="http://www.inkscape.org/namespaces/inkscape" xmlns:sodipodi="http://sodipodi.sourceforge.net/DTD/sodipodi-0.0.dtd" width="193.29mm" height="272.62mm" viewBox="0 0 193.29 272.62">
  <g inkscape:groupmode="layer" inkscape:label="lamelle-precedente" id="lamelle-precedente" sodipodi:insensitive="true" style="display:inline">
    <path d="M 12.000,252.109 L 12.000,257.270 L 12.000,259.589 L 93.732,259.589 L 130.073,259.589 L 135.150,254.428 L 137.409,252.109 L 141.584,246.948 L 143.441,244.629 L 146.832,239.468 L 148.341,237.149 L 151.032,231.988 L 152.229,229.669 L 154.276,224.509 L 155.187,222.189 L 156.629,217.029 L 157.271,214.709 L 158.135,209.549 L 158.519,207.229 L 158.819,202.069 L 158.953,199.749 L 158.694,194.589 L 158.579,192.269 L 157.757,187.109 L 157.392,184.790 L 155.993,179.629 L 155.371,177.310 L 153.369,172.149 L 152.480,169.830 L 149.838,164.669 L 148.663,162.350 L 145.325,157.189 L 143.842,154.870 L 139.728,149.709 L 137.899,147.390 L 132.893,142.229 L 130.668,139.910 L 124.593,134.749 L 121.893,132.430 L 114.467,127.269 L 111.166,124.950 L 101.883,119.789 L 97.757,117.470 L 85.533,112.309 L 80.101,109.990 L 61.362,104.830 L 53.039,102.510 L 24.649,97.350 L 12.000,95.030 L 12.000,100.191 L 12.000,102.510 L 12.000,107.671 L 12.000,109.990 L 12.000,115.151 L 12.000,117.470 L 12.000,122.631 L 12.000,124.950 L 12.000,130.111 L 12.000,132.430 L 12.000,137.591 L 12.000,139.910 L 12.000,145.071 L 12.000,147.390 L 12.000,152.550 L 12.000,154.870 L 12.000,160.030 L 12.000,162.350 L 12.000,167.510 L 12.000,169.830 L 12.000,174.990 L 12.000,177.310 L 12.000,182.470 L 12.000,184.790 L 12.000,189.950 L 12.000,192.269 L 12.000,197.430 L 12.000,199.749 L 12.000,204.910 L 12.000,207.229 L 12.000,212.390 L 12.000,214.709 L 12.000,219.870 L 12.000,222.189 L 12.000,227.350 L 12.000,229.669 L 12.000,234.830 L 12.000,237.149 L 12.000,242.310 L 12.000,244.629 L 12.000,249.790 Z" style="fill:none;stroke:#e6a0a0;stroke-width:0.6;stroke-dasharray:2,2" />
  </g>
<g inkscape:groupmode="layer" inkscape:label="lamelle-suivante" id="lamelle-suivante" sodipodi:insensitive="true" style="display:inline">
    <path d="M 12.000,240.440 L 12.000,243.350 L 12.000,247.234 L 56.483,247.234 L 114.923,247.234 L 117.690,244.324 L 121.330,240.440 L 123.605,237.530 L 126.598,233.646 L 128.446,230.736 L 130.878,226.852 L 132.345,223.942 L 134.275,220.058 L 135.391,217.148 L 136.860,213.264 L 137.647,210.355 L 138.683,206.471 L 139.155,203.561 L 139.777,199.677 L 139.942,196.767 L 140.161,192.883 L 140.021,189.973 L 139.840,186.089 L 139.394,183.179 L 138.809,179.295 L 138.049,176.385 L 137.052,172.501 L 135.964,169.592 L 134.536,165.708 L 133.100,162.798 L 131.214,158.914 L 129.399,156.004 L 127.016,152.120 L 124.778,149.210 L 121.841,145.326 L 119.118,142.416 L 115.543,138.532 L 112.239,135.622 L 107.901,131.738 L 103.862,128.829 L 98.560,124.945 L 93.512,122.035 L 86.886,118.151 L 80.242,115.241 L 71.523,111.357 L 61.353,108.447 L 48.026,104.563 L 32.496,101.653 L 12.000,97.769 L 12.000,100.679 L 12.000,104.563 L 12.000,107.473 L 12.000,111.357 L 12.000,114.267 L 12.000,118.151 L 12.000,121.061 L 12.000,124.945 L 12.000,127.854 L 12.000,131.738 L 12.000,134.648 L 12.000,138.532 L 12.000,141.442 L 12.000,145.326 L 12.000,148.236 L 12.000,152.120 L 12.000,155.030 L 12.000,158.914 L 12.000,161.824 L 12.000,165.708 L 12.000,168.617 L 12.000,172.501 L 12.000,175.411 L 12.000,179.295 L 12.000,182.205 L 12.000,186.089 L 12.000,188.999 L 12.000,192.883 L 12.000,195.793 L 12.000,199.677 L 12.000,202.587 L 12.000,206.471 L 12.000,209.380 L 12.000,213.264 L 12.000,216.174 L 12.000,220.058 L 12.000,222.968 L 12.000,226.852 L 12.000,229.762 L 12.000,233.646 L 12.000,236.556 Z" style="fill:none;stroke:#a0b8e6;stroke-width:0.6;stroke-dasharray:2,2" />
  </g>
<g inkscape:groupmode="layer" inkscape:label="lamelle-courante" id="lamelle-courante">
    <line x1="12.000" y1="260.617" x2="12.000" y2="12.000" style="stroke:#bbbbbb;stroke-width:0.4;stroke-dasharray:1,2" />
    <path d="M 12.000,249.024 L 12.000,253.030 L 12.000,256.211 L 74.771,256.211 L 123.393,256.211 L 127.294,252.205 L 130.319,249.024 L 133.527,245.018 L 136.013,241.837 L 138.620,237.831 L 140.640,234.651 L 142.708,230.645 L 144.311,227.464 L 145.884,223.458 L 147.104,220.277 L 148.213,216.271 L 149.073,213.091 L 149.738,209.085 L 150.254,205.904 L 150.485,201.898 L 150.665,198.718 L 150.467,194.711 L 150.314,191.531 L 149.684,187.525 L 149.196,184.344 L 148.122,180.338 L 147.291,177.158 L 145.755,173.151 L 144.565,169.971 L 142.537,165.965 L 140.967,162.784 L 138.404,158.778 L 136.420,155.598 L 133.261,151.592 L 130.816,148.411 L 126.972,144.405 L 123.996,141.224 L 119.332,137.218 L 115.720,134.038 L 110.019,130.032 L 105.604,126.851 L 98.478,122.845 L 92.960,119.664 L 83.577,115.658 L 76.315,112.478 L 61.939,108.472 L 50.823,105.291 L 28.975,101.285 L 12.000,98.104 L 12.000,102.111 L 12.000,105.291 L 12.000,109.297 L 12.000,112.478 L 12.000,116.484 L 12.000,119.664 L 12.000,123.671 L 12.000,126.851 L 12.000,130.857 L 12.000,134.038 L 12.000,138.044 L 12.000,141.224 L 12.000,145.230 L 12.000,148.411 L 12.000,152.417 L 12.000,155.598 L 12.000,159.604 L 12.000,162.784 L 12.000,166.790 L 12.000,169.971 L 12.000,173.977 L 12.000,177.158 L 12.000,181.164 L 12.000,184.344 L 12.000,188.350 L 12.000,191.531 L 12.000,195.537 L 12.000,198.718 L 12.000,202.724 L 12.000,205.904 L 12.000,209.910 L 12.000,213.091 L 12.000,217.097 L 12.000,220.277 L 12.000,224.284 L 12.000,227.464 L 12.000,231.470 L 12.000,234.651 L 12.000,238.657 L 12.000,241.837 L 12.000,245.844 Z" style="fill:#d8d8d8;fill-opacity:0.35;stroke:#000000;stroke-width:1.0" />
  </g>
</svg>