<?xml version='1.0' encoding='UTF-8'?>
<svg xmlns="http://www.w3.org/2000/svg" xmlns:inkscape="http://www.inkscape.org/namespaces/inkscape" xmlns:sodipodi="http://sodipodi.sourceforge.net/DTD/sodipodi-0.0.dtd" width="193.29mm" height="272.62mm" viewBox="0 0 193.29 272.62">
  <g inkscape:groupmode="layer" inkscape:label="lamelle-precedente" id="lamelle-precedente" sodipodi:insensitive="true" style="display:inline">
    <path d="M 12.000,192.917 L 12.000,199.335 L 12.000,200.471 L 48.852,194.053 L 53.894,192.917 L 72.394,186.499 L 76.946,185.362 L 89.642,178.944 L 92.433,177.808 L 102.218,171.390 L 104.306,170.253 L 112.184,163.835 L 113.844,162.699 L 120.304,156.281 L 121.658,155.145 L 126.983,148.726 L 128.099,147.590 L 132.467,141.172 L 133.384,140.036 L 136.914,133.618 L 137.661,132.481 L 140.435,126.063 L 141.030,124.927 L 143.105,118.509 L 143.560,117.372 L 144.975,110.954 L 145.299,109.818 L 146.079,103.400 L 146.278,102.263 L 146.437,95.845 L 146.513,94.709 L 146.053,88.291 L 146.010,87.154 L 144.922,80.736 L 144.758,79.600 L 143.025,73.182 L 142.736,72.045 L 140.327,65.627 L 139.909,64.491 L 136.776,58.073 L 136.221,56.936 L 132.296,50.518 L 131.592,49.382 L 126.777,42.964 L 125.908,41.828 L 120.058,35.410 L 119.000,34.273 L 111.895,27.855 L 110.612,26.719 L 28.534,26.719 L 12.000,26.719 L 12.000,33.137 L 12.000,34.273 L 12.000,40.691 L 12.000,41.828 L 12.000,48.246 L 12.000,49.382 L 12.000,55.800 L 12.000,56.936 L 12.000,63.354 L 12.000,64.491 L 12.000,70.909 L 12.000,72.045 L 12.000,78.463 L 12.000,79.600 L 12.000,86.018 L 12.000,87.154 L 12.000,93.572 L 12.000,94.709 L 12.000,101.127 L 12.000,102.263 L 12.000,108.681 L 12.000,109.818 L 12.000,116.236 L 12.000,117.372 L 12.000,123.790 L 12.000,124.927 L 12.000,131.345 L 12.000,132.481 L 12.000,138.899 L 12.000,140.036 L 12.000,146.454 L 12.000,147.590 L 12.000,154.008 L 12.000,155.145 L 12.000,161.563 L 12.000,162.699 L 12.000,169.117 L 12.000,170.253 L 12.000,176.671 L 12.000,177.808 L 12.000,184.226 L 12.000,185.362 L 12.000,191.780 Z" style="fill:none;stroke:#e6a0a0;stroke-width:0.6;stroke-dasharray:2,2" />
  </g>
<g inkscape:groupmode="layer" inkscape:label="lamelle-suivante" id="lamelle-suivante" sodipodi:insensitive="true" style="display:inline">
    <path d="M 12.000,198.771 L 12.000,203.546 L 12.000,206.957 L 23.390,202.182 L 23.390,198.771 L 50.156,193.996 L 75.514,190.585 L 89.120,185.811 L 99.797,182.400 L 109.679,177.625 L 117.231,174.214 L 124.998,169.439 L 130.877,166.028 L 137.183,161.253 L 141.936,157.843 L 147.123,153.068 L 151.028,149.657 L 155.300,144.882 L 158.518,141.471 L 162.009,136.696 L 164.644,133.286 L 167.443,128.511 L 169.565,125.100 L 171.733,120.325 L 173.390,116.914 L 174.971,112.139 L 176.197,108.729 L 177.220,103.954 L 178.037,100.543 L 178.519,95.768 L 178.942,92.357 L 178.892,87.582 L 178.927,84.171 L 178.344,79.397 L 177.992,75.986 L 176.866,71.211 L 176.122,67.800 L 174.433,63.025 L 173.283,59.614 L 171.000,54.840 L 169.424,51.429 L 166.500,46.654 L 164.466,43.243 L 160.836,38.468 L 158.299,35.057 L 153.866,30.283 L 150.761,26.872 L 145.382,22.097 L 141.612,18.686 L 66.987,18.686 L 12.000,18.686 L 12.000,23.461 L 12.000,26.872 L 12.000,31.647 L 12.000,35.057 L 12.000,39.832 L 12.000,43.243 L 12.000,48.018 L 12.000,51.429 L 12.000,56.204 L 12.000,59.614 L 12.000,64.389 L 12.000,67.800 L 12.000,72.575 L 12.000,75.986 L 12.000,80.761 L 12.000,84.171 L 12.000,88.946 L 12.000,92.357 L 12.000,97.132 L 12.000,100.543 L 12.000,105.318 L 12.000,108.729 L 12.000,113.503 L 12.000,116.914 L 12.000,121.689 L 12.000,125.100 L 12.000,129.875 L 12.000,133.286 L 12.000,138.060 L 12.000,141.471 L 12.000,146.246 L 12.000,149.657 L 12.000,154.432 L 12.000,157.843 L 12.000,162.617 L 12.000,166.028 L 12.000,170.803 L 12.000,174.214 L 12.000,178.989 L 12.000,182.400 L 12.000,187.174 L 12.000,190.585 L 12.000,195.360 Z" style="fill:none;stroke:#a0b8e6;stroke-width:0.6;stroke-dasharray:2,2" />
  </g>
<g inkscape:groupmode="layer" inkscape:label="lamelle-courante" id="lamelle-courante">
    <line x1="12.000" y1="260.617" x2="12.000" y2="12.000" style="stroke:#bbbbbb;stroke-width:0.4;stroke-dasharray:1,2" />
    <path d="M 12.000,195.658 L 12.000,201.340 L 12.000,203.610 L 37.208,197.928 L 42.623,195.658 L 65.384,189.976 L 78.109,187.706 L 92.066,182.024 L 98.534,179.754 L 108.974,174.072 L 113.672,171.802 L 121.972,166.120 L 125.664,163.850 L 132.436,158.168 L 135.434,155.898 L 141.012,150.216 L 143.478,147.946 L 148.068,142.264 L 150.099,139.994 L 153.834,134.312 L 155.494,132.042 L 158.466,126.360 L 159.796,124.090 L 162.070,118.407 L 163.101,116.138 L 164.719,110.455 L 165.471,108.185 L 166.464,102.503 L 166.950,100.233 L 167.335,94.551 L 167.564,92.281 L 167.346,86.599 L 167.322,84.329 L 166.499,78.647 L 166.221,76.377 L 164.778,70.695 L 164.242,68.425 L 162.153,62.743 L 161.351,60.473 L 158.577,54.791 L 157.491,52.521 L 153.975,46.839 L 152.585,44.569 L 148.243,38.887 L 146.517,36.617 L 141.228,30.935 L 139.121,28.665 L 132.705,22.982 L 130.148,20.712 L 47.478,20.712 L 12.000,20.712 L 12.000,26.395 L 12.000,28.665 L 12.000,34.347 L 12.000,36.617 L 12.000,42.299 L 12.000,44.569 L 12.000,50.251 L 12.000,52.521 L 12.000,58.203 L 12.000,60.473 L 12.000,66.155 L 12.000,68.425 L 12.000,74.107 L 12.000,76.377 L 12.000,82.059 L 12.000,84.329 L 12.000,90.011 L 12.000,92.281 L 12.000,97.963 L 12.000,100.233 L 12.000,105.915 L 12.000,108.185 L 12.000,113.868 L 12.000,116.138 L 12.000,121.820 L 12.000,124.090 L 12.000,129.772 L 12.000,132.042 L 12.000,137.724 L 12.000,139.994 L 12.000,145.676 L 12.000,147.946 L 12.000,153.628 L 12.000,155.898 L 12.000,161.580 L 12.000,163.850 L 12.000,169.532 L 12.000,171.802 L 12.000,177.484 L 12.000,179.754 L 12.000,185.436 L 12.000,187.706 L 12.000,193.388 Z" style="fill:#d8d8d8;fill-opacity:0.35;stroke:#000000;stroke-width:1.0" />
  </g>
</svg>