<?xml version='1.0' encoding='UTF-8'?>
<svg xmlns="http://www.w3.org/2000/svg" xmlns:inkscape="http://www.inkscape.org/namespaces/inkscape" xmlns:ns1="http://sodipodi.sourceforge.net/DTD/sodipodi-0.dtd" xmlns:sodipodi="http://sodipodi.sourceforge.net/DTD/sodipodi-0.0.dtd" width="193.29mm" height="272.62mm" viewBox="0 0 193.29 272.62" version="1.1" id="svg3022" ns1:docname="lamelle_04.svg" inkscape:version="1.2.2 (b0a8486541, 2022-12-01)">
  <defs id="defs3026">
    <inkscape:path-effect effect="bspline" id="path-effect3147" is_visible="true" lpeversion="1" weight="33.333333" steps="2" helper_size="0" apply_no_weight="true" apply_with_weight="true" only_selected="false" />
  </defs>
  <ns1:namedview id="namedview3024" pagecolor="#ffffff" bordercolor="#000000" borderopacity="0.25" inkscape:showpageshadow="2" inkscape:pageopacity="0.0" inkscape:pagecheckerboard="0" inkscape:deskcolor="#d1d1d1" inkscape:document-units="mm" showgrid="false" inkscape:zoom="2.2536835" inkscape:cx="206.99446" inkscape:cy="642.94742" inkscape:window-width="1920" inkscape:window-height="1001" inkscape:window-x="0" inkscape:window-y="0" inkscape:window-maximized="1" inkscape:current-layer="lamelle-courante" />
  <g inkscape:groupmode="layer" inkscape:label="lamelle-precedente" id="lamelle-precedente" sodipodi:insensitive="true" style="display:inline">
    <path style="fill:none;stroke:#e6a0a0;stroke-width:0.6;stroke-dasharray:2,2" d="M 41.494108 149.69215 C 37.124542 149.71329 33.052515 149.96177 29.615247 150.40529 C 23.504548 151.19376 19.40054 152.59808 16.788639 154.01334 C 14.176739 155.42859 13.057191 156.85435 11.937773 158.28026 L 12.198739 208.36351 C 14.99887 208.10451 17.798459 207.84575 22.347473 207.58216 C 26.896487 207.31857 33.194599 207.05045 39.339718 206.91243 C 45.484836 206.77442 51.476747 206.76667 58.439844 206.8313 C 65.402941 206.89594 73.336761 207.03298 80.006486 207.30569 C 86.676211 207.5784 92.0814 207.98651 95.740926 207.81316 C 99.400453 207.6398 101.31436 206.8849 103.37405 205.88717 C 105.43374 204.88945 107.63935 203.64907 109.62173 202.3153 C 111.60412 200.98153 113.36317 199.55424 114.75837 198.03132 C 116.15357 196.5084 117.18463 194.88949 117.94319 192.81769 C 118.70175 190.74589 119.18794 188.22131 119.19583 185.47963 C 119.20371 182.73796 118.7335 179.77928 116.79752 176.32774 C 114.86154 172.87619 111.45948 168.93228 106.54802 165.64674 C 101.63656 162.36119 95.215903 159.73457 90.035848 157.82809 C 84.855793 155.92161 80.916552 154.73496 74.777348 153.42888 C 68.638144 152.1228 60.299426 150.69752 52.07124 150.07094 C 48.471409 149.79681 44.892659 149.67572 41.494108 149.69215 z M 11.934155 158.45699 L 11.94294 208.38211 L 11.934155 158.45699 z " />
  </g>
<g inkscape:groupmode="layer" inkscape:label="lamelle-suivante" id="lamelle-suivante" sodipodi:insensitive="true" style="display:inline">
    <path d="M 12.000,209.697 L 12.000,213.429 L 12.000,213.951 L 112.308,213.951 L 124.966,213.951 L 131.190,210.219 L 131.976,209.697 L 137.094,205.966 L 137.740,205.444 L 141.897,201.712 L 142.422,201.191 L 145.720,197.459 L 146.136,196.937 L 148.644,193.206 L 148.961,192.684 L 150.728,188.952 L 150.951,188.431 L 152.008,184.699 L 152.141,184.177 L 152.507,180.446 L 152.553,179.924 L 152.232,176.192 L 152.192,175.671 L 151.180,171.939 L 151.052,171.417 L 149.332,167.686 L 149.115,167.164 L 146.657,163.433 L 146.346,162.911 L 143.102,159.179 L 142.692,158.658 L 138.593,154.926 L 138.076,154.404 L 133.025,150.673 L 132.387,150.151 L 126.240,146.419 L 125.464,145.898 L 118.006,142.166 L 117.064,141.644 L 107.945,137.913 L 106.795,137.391 L 95.395,133.659 L 93.956,133.138 L 78.939,129.406 L 77.044,128.884 L 53.997,125.153 L 51.088,124.631 L 16.380,120.900 L 12.000,120.378 L 12.000,124.109 L 12.000,124.631 L 12.000,128.363 L 12.000,128.884 L 12.000,132.616 L 12.000,133.138 L 12.000,136.869 L 12.000,137.391 L 12.000,141.123 L 12.000,141.644 L 12.000,145.376 L 12.000,145.898 L 12.000,149.629 L 12.000,150.151 L 12.000,153.883 L 12.000,154.404 L 12.000,158.136 L 12.000,158.658 L 12.000,162.389 L 12.000,162.911 L 12.000,166.642 L 12.000,167.164 L 12.000,170.896 L 12.000,171.417 L 12.000,175.149 L 12.000,175.671 L 12.000,179.402 L 12.000,179.924 L 12.000,183.656 L 12.000,184.177 L 12.000,187.909 L 12.000,188.431 L 12.000,192.162 L 12.000,192.684 L 12.000,196.416 L 12.000,196.937 L 12.000,200.669 L 12.000,201.191 L 12.000,204.922 L 12.000,205.444 L 12.000,209.176 Z" style="fill:none;stroke:#a0b8e6;stroke-width:0.6;stroke-dasharray:2,2" />
  </g>
<g inkscape:groupmode="layer" inkscape:label="lamelle-courante" id="lamelle-courante">
    <line x1="12.000" y1="260.617" x2="12.000" y2="12.000" style="stroke:#bbbbbb;stroke-width:0.4;stroke-dasharray:1,2" id="line3017" />
    <path id="path3145" style="fill:none;stroke:#000000;stroke-width:1" d="m 42.098097,129.99816 c -5.195968,0.0131 -9.61136,1.07151 -14.061565,1.95038 -5.933608,1.17181 -11.071841,3.31196 -16.21038,5.45238 l 0.05168,71.39977 c 0.02823,-0.007 0.05755,-0.0147 0.08578,-0.0222 4.063364,-1.07685 8.141857,-2.15325 14.617195,-3.08922 6.520325,-0.94246 15.469455,-1.74305 22.984127,-2.11615 7.514672,-0.37309 13.59485,-0.31846 20.546033,-0.01 6.951183,0.30864 14.772835,0.87132 20.977014,1.5446 6.20418,0.67328 10.7903,1.45682 14.41514,2.15284 3.62485,0.69603 6.28852,1.30482 9.23045,0.69402 2.94193,-0.6108 6.16238,-2.4405 8.89093,-4.27519 2.72854,-1.83469 4.96481,-3.67462 6.87606,-5.4343 1.91125,-1.75968 3.49707,-3.43937 4.64933,-4.95318 1.15226,-1.51381 1.87091,-2.86187 2.52749,-4.65088 0.65659,-1.78901 1.25134,-4.01893 1.28985,-7.06417 0.0385,-3.04524 -0.47919,-6.90549 -2.97501,-11.5626 -2.49583,-4.65711 -6.96993,-10.11059 -11.71402,-14.66216 -4.74409,-4.55156 -9.75777,-8.20098 -15.87448,-11.58947 -6.11671,-3.38848 -13.335787,-6.51599 -19.875274,-8.36848 -6.539486,-1.85249 -14.484668,-3.73811 -21.221582,-4.36296 -6.736915,-0.62486 -12.460994,-0.85306 -19.632444,-1.08763 -1.792862,-0.0587 -3.844334,0.05 -5.576323,0.0544 z" ns1:nodetypes="sscccssssssssssssssssss" />
  </g>
</svg>