<?xml version='1.0' encoding='UTF-8'?>
<svg xmlns="http://www.w3.org/2000/svg" xmlns:inkscape="http://www.inkscape.org/namespaces/inkscape" xmlns:sodipodi="http://sodipodi.sourceforge.net/DTD/sodipodi-0.0.dtd" width="193.29mm" height="272.62mm" viewBox="0 0 193.29 272.62">
  <g inkscape:groupmode="layer" inkscape:label="lamelle-precedente" id="lamelle-precedente" sodipodi:insensitive="true" style="display:inline">
    <path d="M 12.000,220.090 L 12.000,223.183 L 12.000,224.613 L 31.216,224.613 L 36.294,224.613 L 39.857,221.520 L 41.625,220.090 L 44.433,216.997 L 45.721,215.566 L 48.004,212.473 L 49.018,211.043 L 50.896,207.950 L 51.721,206.520 L 53.267,203.427 L 53.945,201.997 L 55.208,198.904 L 55.767,197.473 L 56.777,194.380 L 57.233,192.950 L 58.014,189.857 L 58.380,188.427 L 58.946,185.334 L 59.229,183.904 L 59.592,180.811 L 59.797,179.380 L 59.962,176.287 L 60.094,174.857 L 60.064,171.764 L 60.126,170.334 L 59.900,167.241 L 59.892,165.811 L 59.467,162.718 L 59.388,161.287 L 58.756,158.194 L 58.606,156.764 L 57.756,153.671 L 57.532,152.241 L 56.446,149.148 L 56.143,147.718 L 54.797,144.625 L 54.410,143.194 L 52.766,140.101 L 52.286,138.671 L 50.292,135.578 L 49.706,134.148 L 47.277,131.055 L 46.566,129.625 L 43.557,126.532 L 42.692,125.101 L 38.812,122.008 L 37.741,120.578 L 32.196,117.485 L 30.817,116.055 L 18.470,112.962 L 16.510,111.532 L 16.510,108.439 L 12.000,107.008 L 12.000,110.101 L 12.000,111.532 L 12.000,114.625 L 12.000,116.055 L 12.000,119.148 L 12.000,120.578 L 12.000,123.671 L 12.000,125.101 L 12.000,128.194 L 12.000,129.625 L 12.000,132.718 L 12.000,134.148 L 12.000,137.241 L 12.000,138.671 L 12.000,141.764 L 12.000,143.194 L 12.000,146.287 L 12.000,147.718 L 12.000,150.811 L 12.000,152.241 L 12.000,155.334 L 12.000,156.764 L 12.000,159.857 L 12.000,161.287 L 12.000,164.380 L 12.000,165.811 L 12.000,168.904 L 12.000,170.334 L 12.000,173.427 L 12.000,174.857 L 12.000,177.950 L 12.000,179.380 L 12.000,182.473 L 12.000,183.904 L 12.000,186.997 L 12.000,188.427 L 12.000,191.520 L 12.000,192.950 L 12.000,196.043 L 12.000,197.473 L 12.000,200.566 L 12.000,201.997 L 12.000,205.090 L 12.000,206.520 L 12.000,209.613 L 12.000,211.043 L 12.000,214.136 L 12.000,215.566 L 12.000,218.659 Z" style="fill:none;stroke:#e6a0a0;stroke-width:0.6;stroke-dasharray:2,2" />
  </g>
<g inkscape:groupmode="layer" inkscape:label="lamelle-suivante" id="lamelle-suivante" sodipodi:insensitive="true" style="display:inline">
    <path d="M 12.000,214.682 L 12.000,216.347 L 12.000,219.267 L 17.129,217.602 L 17.129,214.682 L 19.113,213.017 L 28.246,210.098 L 29.668,208.432 L 33.638,205.513 L 34.750,203.848 L 37.543,200.928 L 38.445,199.263 L 40.615,196.343 L 41.356,194.678 L 43.109,191.758 L 43.720,190.093 L 45.160,187.174 L 45.659,185.509 L 46.846,182.589 L 47.247,180.924 L 48.219,178.004 L 48.532,176.339 L 49.315,173.419 L 49.544,171.754 L 50.157,168.835 L 50.308,167.170 L 50.762,164.250 L 50.836,162.585 L 51.140,159.665 L 51.140,158.000 L 51.300,155.080 L 51.225,153.415 L 51.242,150.495 L 51.092,148.830 L 50.967,145.911 L 50.738,144.246 L 50.470,141.326 L 50.157,139.661 L 49.741,136.741 L 49.339,135.076 L 48.767,132.156 L 48.267,130.491 L 47.528,127.572 L 46.917,125.907 L 45.993,122.987 L 45.252,121.322 L 44.121,118.402 L 43.219,116.737 L 41.846,113.817 L 40.733,112.152 L 39.065,109.233 L 37.642,107.567 L 35.588,104.648 L 33.604,102.983 L 30.994,100.063 L 25.865,98.398 L 22.284,95.478 L 22.284,95.478 L 12.000,95.478 L 12.000,97.143 L 12.000,100.063 L 12.000,101.728 L 12.000,104.648 L 12.000,106.313 L 12.000,109.233 L 12.000,110.898 L 12.000,113.817 L 12.000,115.482 L 12.000,118.402 L 12.000,120.067 L 12.000,122.987 L 12.000,124.652 L 12.000,127.572 L 12.000,129.237 L 12.000,132.156 L 12.000,133.821 L 12.000,136.741 L 12.000,138.406 L 12.000,141.326 L 12.000,142.991 L 12.000,145.911 L 12.000,147.576 L 12.000,150.495 L 12.000,152.161 L 12.000,155.080 L 12.000,156.745 L 12.000,159.665 L 12.000,161.330 L 12.000,164.250 L 12.000,165.915 L 12.000,168.835 L 12.000,170.500 L 12.000,173.419 L 12.000,175.084 L 12.000,178.004 L 12.000,179.669 L 12.000,182.589 L 12.000,184.254 L 12.000,187.174 L 12.000,188.839 L 12.000,191.758 L 12.000,193.424 L 12.000,196.343 L 12.000,198.008 L 12.000,200.928 L 12.000,202.593 L 12.000,205.513 L 12.000,207.178 L 12.000,210.098 L 12.000,211.763 Z" style="fill:none;stroke:#a0b8e6;stroke-width:0.6;stroke-dasharray:2,2" />
  </g>
<g inkscape:groupmode="layer" inkscape:label="lamelle-courante" id="lamelle-courante">
    <line x1="12.000" y1="260.617" x2="12.000" y2="12.000" style="stroke:#bbbbbb;stroke-width:0.4;stroke-dasharray:1,2" />
    <path d="M 12.000,216.283 L 12.000,218.531 L 12.000,220.521 L 19.980,220.521 L 22.759,218.273 L 28.889,216.283 L 30.914,214.036 L 33.285,212.046 L 34.879,209.798 L 36.579,207.808 L 37.874,205.561 L 39.204,203.571 L 40.270,201.323 L 41.347,199.333 L 42.225,197.086 L 43.111,195.096 L 43.827,192.848 L 44.557,190.858 L 45.132,188.611 L 45.729,186.621 L 46.173,184.373 L 46.653,182.383 L 46.976,180.136 L 47.349,178.146 L 47.557,175.898 L 47.831,173.908 L 47.928,171.661 L 48.108,169.671 L 48.095,167.423 L 48.184,165.433 L 48.060,163.186 L 48.060,161.196 L 47.824,158.948 L 47.735,156.958 L 47.383,154.711 L 47.203,152.721 L 46.727,150.473 L 46.453,148.483 L 45.845,146.236 L 45.472,144.246 L 44.718,141.998 L 44.238,140.008 L 43.317,137.761 L 42.720,135.771 L 41.603,133.523 L 40.873,131.533 L 39.513,129.286 L 38.627,127.296 L 36.943,125.048 L 35.865,123.058 L 33.698,120.811 L 32.368,118.821 L 29.288,116.573 L 27.588,114.583 L 20.501,112.336 L 18.130,110.346 L 18.130,108.098 L 12.000,106.108 L 12.000,108.356 L 12.000,110.346 L 12.000,112.593 L 12.000,114.583 L 12.000,116.831 L 12.000,118.821 L 12.000,121.068 L 12.000,123.058 L 12.000,125.306 L 12.000,127.296 L 12.000,129.543 L 12.000,131.533 L 12.000,133.781 L 12.000,135.771 L 12.000,138.018 L 12.000,140.008 L 12.000,142.256 L 12.000,144.246 L 12.000,146.493 L 12.000,148.483 L 12.000,150.731 L 12.000,152.721 L 12.000,154.968 L 12.000,156.958 L 12.000,159.206 L 12.000,161.196 L 12.000,163.443 L 12.000,165.433 L 12.000,167.681 L 12.000,169.671 L 12.000,171.918 L 12.000,173.908 L 12.000,176.156 L 12.000,178.146 L 12.000,180.393 L 12.000,182.383 L 12.000,184.631 L 12.000,186.621 L 12.000,188.868 L 12.000,190.858 L 12.000,193.106 L 12.000,195.096 L 12.000,197.343 L 12.000,199.333 L 12.000,201.581 L 12.000,203.571 L 12.000,205.818 L 12.000,207.808 L 12.000,210.056 L 12.000,212.046 L 12.000,214.293 Z" style="fill:#d8d8d8;fill-opacity:0.35;stroke:#000000;stroke-width:1.0" />
  </g>
</svg>