<?xml version='1.0' encoding='UTF-8'?>
<svg xmlns="http://www.w3.org/2000/svg" xmlns:inkscape="http://www.inkscape.org/namespaces/inkscape" xmlns:sodipodi="http://sodipodi.sourceforge.net/DTD/sodipodi-0.0.dtd" width="193.29mm" height="272.62mm" viewBox="0 0 193.29 272.62">
  <g inkscape:groupmode="layer" inkscape:label="lamelle-precedente" id="lamelle-precedente" sodipodi:insensitive="true" style="display:inline">
    <path d="M 12.000,229.488 L 12.000,231.877 L 12.000,237.197 L 55.499,237.197 L 140.991,237.197 L 143.973,234.807 L 150.135,229.488 L 152.592,227.099 L 157.670,221.779 L 159.677,219.390 L 163.836,214.071 L 165.445,211.681 L 168.794,206.362 L 170.041,203.973 L 172.656,198.653 L 173.566,196.264 L 175.500,190.944 L 176.089,188.555 L 177.379,183.236 L 177.658,180.846 L 178.326,175.527 L 178.298,173.138 L 178.355,167.818 L 178.021,165.429 L 177.468,160.110 L 176.822,157.720 L 175.650,152.401 L 174.680,150.012 L 172.869,144.692 L 171.558,142.303 L 169.074,136.983 L 167.396,134.594 L 164.189,129.275 L 162.105,126.885 L 158.106,121.566 L 155.560,119.177 L 150.665,113.857 L 147.576,111.468 L 141.634,106.149 L 137.873,103.759 L 130.650,98.440 L 125.999,96.050 L 117.101,90.731 L 111.126,88.342 L 99.806,83.022 L 91.359,80.633 L 75.772,75.314 L 55.712,72.924 L 25.049,67.605 L 25.049,65.216 L 12.000,59.896 L 12.000,62.286 L 12.000,67.605 L 12.000,69.994 L 12.000,75.314 L 12.000,77.703 L 12.000,83.022 L 12.000,85.412 L 12.000,90.731 L 12.000,93.120 L 12.000,98.440 L 12.000,100.829 L 12.000,106.149 L 12.000,108.538 L 12.000,113.857 L 12.000,116.247 L 12.000,121.566 L 12.000,123.955 L 12.000,129.275 L 12.000,131.664 L 12.000,136.983 L 12.000,139.373 L 12.000,144.692 L 12.000,147.081 L 12.000,152.401 L 12.000,154.790 L 12.000,160.110 L 12.000,162.499 L 12.000,167.818 L 12.000,170.208 L 12.000,175.527 L 12.000,177.916 L 12.000,183.236 L 12.000,185.625 L 12.000,190.944 L 12.000,193.334 L 12.000,198.653 L 12.000,201.042 L 12.000,206.362 L 12.000,208.751 L 12.000,214.071 L 12.000,216.460 L 12.000,221.779 L 12.000,224.169 Z" style="fill:none;stroke:#e6a0a0;stroke-width:0.6;stroke-dasharray:2,2" />
  </g>
<g inkscape:groupmode="layer" inkscape:label="lamelle-suivante" id="lamelle-suivante" sodipodi:insensitive="true" style="display:inline">
    <path d="M 12.000,236.253 L 12.000,236.798 L 12.000,244.328 L 19.964,244.328 L 112.447,244.328 L 113.065,243.784 L 121.071,236.253 L 121.581,235.709 L 128.172,228.179 L 128.591,227.634 L 134.017,220.104 L 134.356,219.560 L 138.779,212.029 L 139.046,211.485 L 142.576,203.955 L 142.778,203.410 L 145.493,195.880 L 145.632,195.336 L 147.584,187.805 L 147.663,187.261 L 148.888,179.731 L 148.909,179.186 L 149.428,171.656 L 149.391,171.112 L 149.212,163.581 L 149.116,163.037 L 148.237,155.507 L 148.081,154.963 L 146.486,147.432 L 146.267,146.888 L 143.929,139.358 L 143.642,138.813 L 140.517,131.283 L 140.157,130.739 L 136.179,123.208 L 135.737,122.664 L 130.816,115.134 L 130.278,114.589 L 124.279,107.059 L 123.626,106.515 L 116.347,98.984 L 115.548,98.440 L 106.672,90.910 L 105.666,90.365 L 94.640,82.835 L 93.296,82.291 L 78.991,74.760 L 76.798,74.216 L 55.953,66.686 L 53.524,66.142 L 12.000,58.611 L 12.000,59.155 L 12.000,66.686 L 12.000,67.230 L 12.000,74.760 L 12.000,75.305 L 12.000,82.835 L 12.000,83.379 L 12.000,90.910 L 12.000,91.454 L 12.000,98.984 L 12.000,99.529 L 12.000,107.059 L 12.000,107.603 L 12.000,115.134 L 12.000,115.678 L 12.000,123.208 L 12.000,123.753 L 12.000,131.283 L 12.000,131.827 L 12.000,139.358 L 12.000,139.902 L 12.000,147.432 L 12.000,147.977 L 12.000,155.507 L 12.000,156.051 L 12.000,163.581 L 12.000,164.126 L 12.000,171.656 L 12.000,172.200 L 12.000,179.731 L 12.000,180.275 L 12.000,187.805 L 12.000,188.350 L 12.000,195.880 L 12.000,196.424 L 12.000,203.955 L 12.000,204.499 L 12.000,212.029 L 12.000,212.574 L 12.000,220.104 L 12.000,220.648 L 12.000,228.179 L 12.000,228.723 Z" style="fill:none;stroke:#a0b8e6;stroke-width:0.6;stroke-dasharray:2,2" />
  </g>
<g inkscape:groupmode="layer" inkscape:label="lamelle-courante" id="lamelle-courante">
    <line x1="12.000" y1="260.617" x2="12.000" y2="12.000" style="stroke:#bbbbbb;stroke-width:0.4;stroke-dasharray:1,2" />
    <path d="M 12.000,238.310 L 12.000,239.929 L 12.000,246.383 L 38.020,246.383 L 132.455,246.383 L 134.330,244.764 L 141.660,238.310 L 143.205,236.691 L 149.246,230.237 L 150.512,228.618 L 155.472,222.164 L 156.491,220.545 L 160.508,214.092 L 161.304,212.473 L 164.473,206.019 L 165.062,204.400 L 167.448,197.946 L 167.841,196.327 L 169.490,189.873 L 169.693,188.254 L 170.634,181.800 L 170.652,180.181 L 170.901,173.728 L 170.732,172.109 L 170.293,165.655 L 169.937,164.036 L 168.802,157.582 L 168.251,155.963 L 166.402,149.509 L 165.646,147.890 L 163.049,141.437 L 162.073,139.818 L 158.678,133.364 L 157.461,131.745 L 153.194,125.291 L 151.705,123.672 L 146.462,117.218 L 144.654,115.599 L 138.282,109.145 L 136.083,107.526 L 128.347,101.073 L 125.639,99.454 L 116.158,93.000 L 112.712,91.381 L 100.786,84.927 L 96.043,83.308 L 80.099,76.854 L 70.767,75.235 L 44.767,68.782 L 40.795,67.163 L 12.000,60.709 L 12.000,62.328 L 12.000,68.782 L 12.000,70.401 L 12.000,76.854 L 12.000,78.473 L 12.000,84.927 L 12.000,86.546 L 12.000,93.000 L 12.000,94.619 L 12.000,101.073 L 12.000,102.692 L 12.000,109.145 L 12.000,110.764 L 12.000,117.218 L 12.000,118.837 L 12.000,125.291 L 12.000,126.910 L 12.000,133.364 L 12.000,134.983 L 12.000,141.437 L 12.000,143.055 L 12.000,149.509 L 12.000,151.128 L 12.000,157.582 L 12.000,159.201 L 12.000,165.655 L 12.000,167.274 L 12.000,173.728 L 12.000,175.347 L 12.000,181.800 L 12.000,183.419 L 12.000,189.873 L 12.000,191.492 L 12.000,197.946 L 12.000,199.565 L 12.000,206.019 L 12.000,207.638 L 12.000,214.092 L 12.000,215.710 L 12.000,222.164 L 12.000,223.783 L 12.000,230.237 L 12.000,231.856 Z" style="fill:#d8d8d8;fill-opacity:0.35;stroke:#000000;stroke-width:1.0" />
  </g>
</svg>