<?xml version='1.0' encoding='UTF-8'?>
<svg xmlns="http://www.w3.org/2000/svg" xmlns:inkscape="http://www.inkscape.org/namespaces/inkscape" xmlns:sodipodi="http://sodipodi.sourceforge.net/DTD/sodipodi-0.0.dtd" width="193.29mm" height="272.62mm" viewBox="0 0 193.29 272.62">
  <g inkscape:groupmode="layer" inkscape:label="lamelle-precedente" id="lamelle-precedente" sodipodi:insensitive="true" style="display:inline">
    <path d="M 12.000,159.569 L 12.000,163.337 L 12.000,163.883 L 84.805,163.883 L 96.280,163.883 L 100.886,160.116 L 101.619,159.569 L 105.407,155.802 L 106.010,155.256 L 109.092,151.488 L 109.583,150.942 L 112.032,147.174 L 112.423,146.628 L 114.294,142.861 L 114.592,142.315 L 115.920,138.547 L 116.133,138.001 L 116.941,134.233 L 117.072,133.687 L 117.375,129.920 L 117.426,129.373 L 117.229,125.606 L 117.201,125.060 L 116.500,121.292 L 116.392,120.746 L 115.176,116.978 L 114.987,116.432 L 113.234,112.665 L 112.960,112.119 L 110.636,108.351 L 110.273,107.805 L 107.330,104.037 L 106.869,103.491 L 103.238,99.724 L 102.668,99.178 L 98.247,95.410 L 97.554,94.864 L 92.190,91.096 L 91.348,90.550 L 84.797,86.782 L 83.769,86.236 L 75.598,82.469 L 74.318,81.923 L 63.615,78.155 L 61.943,77.609 L 45.844,73.841 L 43.352,73.295 L 16.388,69.528 L 12.000,68.982 L 12.000,72.749 L 12.000,73.295 L 12.000,77.063 L 12.000,77.609 L 12.000,81.377 L 12.000,81.923 L 12.000,85.690 L 12.000,86.236 L 12.000,90.004 L 12.000,90.550 L 12.000,94.318 L 12.000,94.864 L 12.000,98.631 L 12.000,99.178 L 12.000,102.945 L 12.000,103.491 L 12.000,107.259 L 12.000,107.805 L 12.000,111.573 L 12.000,112.119 L 12.000,115.886 L 12.000,116.432 L 12.000,120.200 L 12.000,120.746 L 12.000,124.514 L 12.000,125.060 L 12.000,128.827 L 12.000,129.373 L 12.000,133.141 L 12.000,133.687 L 12.000,137.455 L 12.000,138.001 L 12.000,141.769 L 12.000,142.315 L 12.000,146.082 L 12.000,146.628 L 12.000,150.396 L 12.000,150.942 L 12.000,154.710 L 12.000,155.256 L 12.000,159.023 Z" style="fill:none;stroke:#e6a0a0;stroke-width:0.6;stroke-dasharray:2,2" />
  </g>
<g inkscape:groupmode="layer" inkscape:label="lamelle-suivante" id="lamelle-suivante" sodipodi:insensitive="true" style="display:inline">
    <path d="M 12.000,167.752 L 12.000,170.687 L 12.000,172.829 L 76.130,172.829 L 123.570,172.829 L 127.728,169.893 L 130.873,167.752 L 134.295,164.816 L 136.885,162.674 L 139.673,159.739 L 141.785,157.597 L 144.007,154.661 L 145.695,152.520 L 147.401,149.584 L 148.701,147.442 L 149.922,144.507 L 150.861,142.365 L 151.620,139.429 L 152.214,137.288 L 152.524,134.352 L 152.783,132.210 L 152.650,129.275 L 152.579,127.133 L 151.999,124.197 L 151.597,122.056 L 150.562,119.120 L 149.820,116.978 L 148.312,114.043 L 147.219,111.901 L 145.208,108.966 L 143.743,106.824 L 141.188,103.888 L 139.322,101.746 L 136.163,98.811 L 133.852,96.669 L 130.002,93.734 L 127.184,91.592 L 122.514,88.656 L 119.094,86.514 L 113.396,83.579 L 109.228,81.437 L 102.142,78.502 L 96.970,76.360 L 87.749,73.424 L 81.057,71.282 L 67.494,68.347 L 57.820,66.205 L 32.173,63.270 L 12.000,61.128 L 12.000,64.063 L 12.000,66.205 L 12.000,69.141 L 12.000,71.282 L 12.000,74.218 L 12.000,76.360 L 12.000,79.295 L 12.000,81.437 L 12.000,84.373 L 12.000,86.514 L 12.000,89.450 L 12.000,91.592 L 12.000,94.527 L 12.000,96.669 L 12.000,99.605 L 12.000,101.746 L 12.000,104.682 L 12.000,106.824 L 12.000,109.759 L 12.000,111.901 L 12.000,114.837 L 12.000,116.978 L 12.000,119.914 L 12.000,122.056 L 12.000,124.991 L 12.000,127.133 L 12.000,130.068 L 12.000,132.210 L 12.000,135.146 L 12.000,137.288 L 12.000,140.223 L 12.000,142.365 L 12.000,145.300 L 12.000,147.442 L 12.000,150.378 L 12.000,152.520 L 12.000,155.455 L 12.000,157.597 L 12.000,160.532 L 12.000,162.674 L 12.000,165.610 Z" style="fill:none;stroke:#a0b8e6;stroke-width:0.6;stroke-dasharray:2,2" />
  </g>
<g inkscape:groupmode="layer" inkscape:label="lamelle-courante" id="lamelle-courante">
    <line x1="12.000" y1="260.617" x2="12.000" y2="12.000" style="stroke:#bbbbbb;stroke-width:0.4;stroke-dasharray:1,2" />
    <path d="M 12.000,158.322 L 12.000,161.557 L 12.000,162.815 L 79.973,162.815 L 107.457,162.815 L 111.800,159.580 L 113.582,158.322 L 117.154,155.088 L 118.621,153.830 L 121.529,150.595 L 122.724,149.337 L 125.038,146.102 L 125.990,144.844 L 127.761,141.610 L 128.492,140.352 L 129.753,137.117 L 130.276,135.859 L 131.051,132.624 L 131.376,131.366 L 131.678,128.132 L 131.811,126.874 L 131.644,123.639 L 131.587,122.381 L 130.948,119.146 L 130.700,117.888 L 129.580,114.654 L 129.137,113.396 L 127.515,110.161 L 126.868,108.903 L 124.714,105.668 L 123.852,104.410 L 121.120,101.176 L 120.025,99.918 L 116.652,96.683 L 115.298,95.425 L 111.189,92.190 L 109.539,90.932 L 104.555,87.698 L 102.553,86.440 L 96.468,83.205 L 94.026,81.947 L 86.445,78.712 L 83.408,77.454 L 73.504,74.220 L 69.552,72.962 L 54.795,69.727 L 48.982,68.469 L 22.992,65.234 L 12.000,63.976 L 12.000,67.211 L 12.000,68.469 L 12.000,71.704 L 12.000,72.962 L 12.000,76.196 L 12.000,77.454 L 12.000,80.689 L 12.000,81.947 L 12.000,85.182 L 12.000,86.440 L 12.000,89.674 L 12.000,90.932 L 12.000,94.167 L 12.000,95.425 L 12.000,98.660 L 12.000,99.918 L 12.000,103.152 L 12.000,104.410 L 12.000,107.645 L 12.000,108.903 L 12.000,112.138 L 12.000,113.396 L 12.000,116.630 L 12.000,117.888 L 12.000,121.123 L 12.000,122.381 L 12.000,125.616 L 12.000,126.874 L 12.000,130.108 L 12.000,131.366 L 12.000,134.601 L 12.000,135.859 L 12.000,139.094 L 12.000,140.352 L 12.000,143.586 L 12.000,144.844 L 12.000,148.079 L 12.000,149.337 L 12.000,152.572 L 12.000,153.830 L 12.000,157.064 Z" style="fill:#d8d8d8;fill-opacity:0.35;stroke:#000000;stroke-width:1.0" />
  </g>
</svg>