<?xml version='1.0' encoding='UTF-8'?>
<svg xmlns="http://www.w3.org/2000/svg" xmlns:inkscape="http://www.inkscape.org/namespaces/inkscape" xmlns:sodipodi="http://sodipodi.sourceforge.net/DTD/sodipodi-0.0.dtd" width="193.29mm" height="272.62mm" viewBox="0 0 193.29 272.62">
  <g inkscape:groupmode="layer" inkscape:label="lamelle-precedente" id="lamelle-precedente" sodipodi:insensitive="true" style="display:inline">
    <path d="M 12.000,195.658 L 12.000,201.340 L 12.000,203.610 L 37.208,197.928 L 42.623,195.658 L 65.384,189.976 L 78.109,187.706 L 92.066,182.024 L 98.534,179.754 L 108.974,174.072 L 113.672,171.802 L 121.972,166.120 L 125.664,163.850 L 132.436,158.168 L 135.434,155.898 L 141.012,150.216 L 143.478,147.946 L 148.068,142.264 L 150.099,139.994 L 153.834,134.312 L 155.494,132.042 L 158.466,126.360 L 159.796,124.090 L 162.070,118.407 L 163.101,116.138 L 164.719,110.455 L 165.471,108.185 L 166.464,102.503 L 166.950,100.233 L 167.335,94.551 L 167.564,92.281 L 167.346,86.599 L 167.322,84.329 L 166.499,78.647 L 166.221,76.377 L 164.778,70.695 L 164.242,68.425 L 162.153,62.743 L 161.351,60.473 L 158.577,54.791 L 157.491,52.521 L 153.975,46.839 L 152.585,44.569 L 148.243,38.887 L 146.517,36.617 L 141.228,30.935 L 139.121,28.665 L 132.705,22.982 L 130.148,20.712 L 47.478,20.712 L 12.000,20.712 L 12.000,26.395 L 12.000,28.665 L 12.000,34.347 L 12.000,36.617 L 12.000,42.299 L 12.000,44.569 L 12.000,50.251 L 12.000,52.521 L 12.000,58.203 L 12.000,60.473 L 12.000,66.155 L 12.000,68.425 L 12.000,74.107 L 12.000,76.377 L 12.000,82.059 L 12.000,84.329 L 12.000,90.011 L 12.000,92.281 L 12.000,97.963 L 12.000,100.233 L 12.000,105.915 L 12.000,108.185 L 12.000,113.868 L 12.000,116.138 L 12.000,121.820 L 12.000,124.090 L 12.000,129.772 L 12.000,132.042 L 12.000,137.724 L 12.000,139.994 L 12.000,145.676 L 12.000,147.946 L 12.000,153.628 L 12.000,155.898 L 12.000,161.580 L 12.000,163.850 L 12.000,169.532 L 12.000,171.802 L 12.000,177.484 L 12.000,179.754 L 12.000,185.436 L 12.000,187.706 L 12.000,193.388 Z" style="fill:none;stroke:#e6a0a0;stroke-width:0.6;stroke-dasharray:2,2" />
  </g>
<g inkscape:groupmode="layer" inkscape:label="lamelle-suivante" id="lamelle-suivante" sodipodi:insensitive="true" style="display:inline">
    <path d="M 12.000,193.397 L 12.000,197.125 L 12.000,201.594 L 39.717,197.865 L 70.783,193.397 L 82.454,189.669 L 97.352,185.200 L 105.607,181.472 L 115.913,177.004 L 122.339,173.275 L 130.303,168.807 L 135.499,165.079 L 141.918,160.610 L 146.185,156.882 L 151.451,152.413 L 154.969,148.685 L 159.309,144.217 L 162.189,140.488 L 165.748,136.020 L 168.068,132.292 L 170.941,127.823 L 172.752,124.095 L 175.008,119.627 L 176.347,115.898 L 178.030,111.430 L 178.922,107.702 L 180.064,103.233 L 180.525,99.505 L 181.146,95.037 L 181.184,91.308 L 181.294,86.840 L 180.910,83.112 L 180.511,78.643 L 179.697,74.915 L 178.783,70.446 L 177.526,66.718 L 176.081,62.250 L 174.358,58.521 L 172.355,54.053 L 170.132,50.325 L 167.532,45.856 L 164.759,42.128 L 161.506,37.660 L 158.111,33.931 L 154.123,29.463 L 150.002,25.735 L 145.159,21.266 L 85.057,21.266 L 12.000,21.266 L 12.000,24.995 L 12.000,29.463 L 12.000,33.191 L 12.000,37.660 L 12.000,41.388 L 12.000,45.856 L 12.000,49.585 L 12.000,54.053 L 12.000,57.781 L 12.000,62.250 L 12.000,65.978 L 12.000,70.446 L 12.000,74.175 L 12.000,78.643 L 12.000,82.371 L 12.000,86.840 L 12.000,90.568 L 12.000,95.037 L 12.000,98.765 L 12.000,103.233 L 12.000,106.962 L 12.000,111.430 L 12.000,115.158 L 12.000,119.627 L 12.000,123.355 L 12.000,127.823 L 12.000,131.552 L 12.000,136.020 L 12.000,139.748 L 12.000,144.217 L 12.000,147.945 L 12.000,152.413 L 12.000,156.142 L 12.000,160.610 L 12.000,164.338 L 12.000,168.807 L 12.000,172.535 L 12.000,177.004 L 12.000,180.732 L 12.000,185.200 L 12.000,188.929 Z" style="fill:none;stroke:#a0b8e6;stroke-width:0.6;stroke-dasharray:2,2" />
  </g>
<g inkscape:groupmode="layer" inkscape:label="lamelle-courante" id="lamelle-courante">
    <line x1="12.000" y1="260.617" x2="12.000" y2="12.000" style="stroke:#bbbbbb;stroke-width:0.4;stroke-dasharray:1,2" />
    <path d="M 12.000,198.771 L 12.000,203.546 L 12.000,206.957 L 23.390,202.182 L 23.390,198.771 L 50.156,193.996 L 75.514,190.585 L 89.120,185.811 L 99.797,182.400 L 109.679,177.625 L 117.231,174.214 L 124.998,169.439 L 130.877,166.028 L 137.183,161.253 L 141.936,157.843 L 147.123,153.068 L 151.028,149.657 L 155.300,144.882 L 158.518,141.471 L 162.009,136.696 L 164.644,133.286 L 167.443,128.511 L 169.565,125.100 L 171.733,120.325 L 173.390,116.914 L 174.971,112.139 L 176.197,108.729 L 177.220,103.954 L 178.037,100.543 L 178.519,95.768 L 178.942,92.357 L 178.892,87.582 L 178.927,84.171 L 178.344,79.397 L 177.992,75.986 L 176.866,71.211 L 176.122,67.800 L 174.433,63.025 L 173.283,59.614 L 171.000,54.840 L 169.424,51.429 L 166.500,46.654 L 164.466,43.243 L 160.836,38.468 L 158.299,35.057 L 153.866,30.283 L 150.761,26.872 L 145.382,22.097 L 141.612,18.686 L 66.987,18.686 L 12.000,18.686 L 12.000,23.461 L 12.000,26.872 L 12.000,31.647 L 12.000,35.057 L 12.000,39.832 L 12.000,43.243 L 12.000,48.018 L 12.000,51.429 L 12.000,56.204 L 12.000,59.614 L 12.000,64.389 L 12.000,67.800 L 12.000,72.575 L 12.000,75.986 L 12.000,80.761 L 12.000,84.171 L 12.000,88.946 L 12.000,92.357 L 12.000,97.132 L 12.000,100.543 L 12.000,105.318 L 12.000,108.729 L 12.000,113.503 L 12.000,116.914 L 12.000,121.689 L 12.000,125.100 L 12.000,129.875 L 12.000,133.286 L 12.000,138.060 L 12.000,141.471 L 12.000,146.246 L 12.000,149.657 L 12.000,154.432 L 12.000,157.843 L 12.000,162.617 L 12.000,166.028 L 12.000,170.803 L 12.000,174.214 L 12.000,178.989 L 12.000,182.400 L 12.000,187.174 L 12.000,190.585 L 12.000,195.360 Z" style="fill:#d8d8d8;fill-opacity:0.35;stroke:#000000;stroke-width:1.0" />
  </g>
</svg>