<?xml version='1.0' encoding='UTF-8'?>
<svg xmlns="http://www.w3.org/2000/svg" xmlns:inkscape="http://www.inkscape.org/namespaces/inkscape" xmlns:sodipodi="http://sodipodi.sourceforge.net/DTD/sodipodi-0.0.dtd" width="193.29mm" height="272.62mm" viewBox="0 0 193.29 272.62">
  <g inkscape:groupmode="layer" inkscape:label="lamelle-precedente" id="lamelle-precedente" sodipodi:insensitive="true" style="display:inline">
    <path d="M 12.000,240.440 L 12.000,243.350 L 12.000,247.234 L 56.483,247.234 L 114.923,247.234 L 117.690,244.324 L 121.330,240.440 L 123.605,237.530 L 126.598,233.646 L 128.446,230.736 L 130.878,226.852 L 132.345,223.942 L 134.275,220.058 L 135.391,217.148 L 136.860,213.264 L 137.647,210.355 L 138.683,206.471 L 139.155,203.561 L 139.777,199.677 L 139.942,196.767 L 140.161,192.883 L 140.021,189.973 L 139.840,186.089 L 139.394,183.179 L 138.809,179.295 L 138.049,176.385 L 137.052,172.501 L 135.964,169.592 L 134.536,165.708 L 133.100,162.798 L 131.214,158.914 L 129.399,156.004 L 127.016,152.120 L 124.778,149.210 L 121.841,145.326 L 119.118,142.416 L 115.543,138.532 L 112.239,135.622 L 107.901,131.738 L 103.862,128.829 L 98.560,124.945 L 93.512,122.035 L 86.886,118.151 L 80.242,115.241 L 71.523,111.357 L 61.353,108.447 L 48.026,104.563 L 32.496,101.653 L 12.000,97.769 L 12.000,100.679 L 12.000,104.563 L 12.000,107.473 L 12.000,111.357 L 12.000,114.267 L 12.000,118.151 L 12.000,121.061 L 12.000,124.945 L 12.000,127.854 L 12.000,131.738 L 12.000,134.648 L 12.000,138.532 L 12.000,141.442 L 12.000,145.326 L 12.000,148.236 L 12.000,152.120 L 12.000,155.030 L 12.000,158.914 L 12.000,161.824 L 12.000,165.708 L 12.000,168.617 L 12.000,172.501 L 12.000,175.411 L 12.000,179.295 L 12.000,182.205 L 12.000,186.089 L 12.000,188.999 L 12.000,192.883 L 12.000,195.793 L 12.000,199.677 L 12.000,202.587 L 12.000,206.471 L 12.000,209.380 L 12.000,213.264 L 12.000,216.174 L 12.000,220.058 L 12.000,222.968 L 12.000,226.852 L 12.000,229.762 L 12.000,233.646 L 12.000,236.556 Z" style="fill:none;stroke:#e6a0a0;stroke-width:0.6;stroke-dasharray:2,2" />
  </g>
<g inkscape:groupmode="layer" inkscape:label="lamelle-suivante" id="lamelle-suivante" sodipodi:insensitive="true" style="display:inline">
    <path d="M 12.000,202.826 L 12.000,203.707 L 12.000,208.375 L 25.235,208.375 L 98.106,208.375 L 98.932,207.494 L 103.492,202.826 L 104.171,201.944 L 107.921,197.276 L 108.473,196.395 L 111.521,191.727 L 111.959,190.845 L 114.379,186.177 L 114.713,185.296 L 116.557,180.628 L 116.792,179.746 L 118.095,175.078 L 118.237,174.197 L 119.023,169.528 L 119.073,168.647 L 119.355,163.979 L 119.314,163.098 L 119.097,158.429 L 118.965,157.548 L 118.245,152.880 L 118.020,151.998 L 116.784,147.330 L 116.461,146.449 L 114.689,141.781 L 114.262,140.899 L 111.919,136.231 L 111.380,135.350 L 108.416,130.682 L 107.751,129.800 L 104.097,125.132 L 103.288,124.251 L 98.840,119.583 L 97.859,118.701 L 92.462,114.033 L 91.262,113.152 L 84.667,108.483 L 83.169,107.602 L 74.932,102.934 L 72.961,102.053 L 62.139,97.384 L 59.132,96.503 L 42.673,91.835 L 37.999,90.953 L 12.000,86.285 L 12.000,87.167 L 12.000,91.835 L 12.000,92.716 L 12.000,97.384 L 12.000,98.266 L 12.000,102.934 L 12.000,103.815 L 12.000,108.483 L 12.000,109.365 L 12.000,114.033 L 12.000,114.914 L 12.000,119.583 L 12.000,120.464 L 12.000,125.132 L 12.000,126.014 L 12.000,130.682 L 12.000,131.563 L 12.000,136.231 L 12.000,137.113 L 12.000,141.781 L 12.000,142.662 L 12.000,147.330 L 12.000,148.212 L 12.000,152.880 L 12.000,153.761 L 12.000,158.429 L 12.000,159.311 L 12.000,163.979 L 12.000,164.860 L 12.000,169.528 L 12.000,170.410 L 12.000,175.078 L 12.000,175.959 L 12.000,180.628 L 12.000,181.509 L 12.000,186.177 L 12.000,187.059 L 12.000,191.727 L 12.000,192.608 L 12.000,197.276 L 12.000,198.158 Z" style="fill:none;stroke:#a0b8e6;stroke-width:0.6;stroke-dasharray:2,2" />
  </g>
<g inkscape:groupmode="layer" inkscape:label="lamelle-courante" id="lamelle-courante">
    <line x1="12.000" y1="260.617" x2="12.000" y2="12.000" style="stroke:#bbbbbb;stroke-width:0.4;stroke-dasharray:1,2" />
    <path d="M 12.000,224.951 L 12.000,226.797 L 12.000,231.204 L 39.783,231.204 L 105.957,231.204 L 107.687,229.358 L 111.817,224.951 L 113.239,223.104 L 116.635,218.697 L 117.791,216.851 L 120.550,212.444 L 121.468,210.597 L 123.658,206.190 L 124.356,204.343 L 126.024,199.936 L 126.517,198.090 L 127.694,193.683 L 127.990,191.836 L 128.698,187.429 L 128.802,185.583 L 129.053,181.176 L 128.966,179.329 L 128.764,174.922 L 128.486,173.076 L 127.828,168.668 L 127.354,166.822 L 126.228,162.415 L 125.549,160.568 L 123.935,156.161 L 123.038,154.315 L 120.906,149.908 L 119.773,148.061 L 117.077,143.654 L 115.681,141.808 L 112.358,137.400 L 110.658,135.554 L 106.613,131.147 L 104.551,129.300 L 99.644,124.893 L 97.123,123.047 L 91.125,118.640 L 87.975,116.793 L 80.481,112.386 L 76.336,110.540 L 66.482,106.133 L 60.146,104.286 L 45.113,99.879 L 35.369,98.032 L 12.000,93.625 L 12.000,95.472 L 12.000,99.879 L 12.000,101.725 L 12.000,106.133 L 12.000,107.979 L 12.000,112.386 L 12.000,114.233 L 12.000,118.640 L 12.000,120.486 L 12.000,124.893 L 12.000,126.740 L 12.000,131.147 L 12.000,132.993 L 12.000,137.400 L 12.000,139.247 L 12.000,143.654 L 12.000,145.501 L 12.000,149.908 L 12.000,151.754 L 12.000,156.161 L 12.000,158.008 L 12.000,162.415 L 12.000,164.261 L 12.000,168.668 L 12.000,170.515 L 12.000,174.922 L 12.000,176.768 L 12.000,181.176 L 12.000,183.022 L 12.000,187.429 L 12.000,189.276 L 12.000,193.683 L 12.000,195.529 L 12.000,199.936 L 12.000,201.783 L 12.000,206.190 L 12.000,208.036 L 12.000,212.444 L 12.000,214.290 L 12.000,218.697 L 12.000,220.544 Z" style="fill:#d8d8d8;fill-opacity:0.35;stroke:#000000;stroke-width:1.0" />
  </g>
</svg>