<?xml version='1.0' encoding='UTF-8'?>
<svg xmlns="http://www.w3.org/2000/svg" xmlns:inkscape="http://www.inkscape.org/namespaces/inkscape" xmlns:sodipodi="http://sodipodi.sourceforge.net/DTD/sodipodi-0.0.dtd" width="193.29mm" height="272.62mm" viewBox="0 0 193.29 272.62">
  <g inkscape:groupmode="layer" inkscape:label="lamelle-precedente" id="lamelle-precedente" sodipodi:insensitive="true" style="display:inline">
    <path d="M 12.000,225.619 L 12.000,230.168 L 12.000,231.109 L 51.673,231.109 L 57.521,231.109 L 62.633,226.561 L 63.718,225.619 L 67.862,221.071 L 68.717,220.129 L 72.125,215.581 L 72.820,214.639 L 75.627,210.091 L 76.199,209.150 L 78.495,204.601 L 78.966,203.660 L 80.809,199.111 L 81.193,198.170 L 82.626,193.621 L 82.933,192.680 L 83.983,188.131 L 84.220,187.190 L 84.907,182.642 L 85.079,181.700 L 85.414,177.152 L 85.524,176.210 L 85.513,171.662 L 85.563,170.720 L 85.206,166.172 L 85.197,165.231 L 84.488,160.682 L 84.419,159.741 L 83.345,155.192 L 83.216,154.251 L 81.758,149.702 L 81.566,148.761 L 79.695,144.212 L 79.436,143.271 L 77.109,138.723 L 76.779,137.781 L 73.935,133.233 L 73.525,132.291 L 70.075,127.743 L 69.574,126.801 L 65.376,122.253 L 64.769,121.312 L 59.583,116.763 L 58.843,115.822 L 52.203,111.273 L 51.287,110.332 L 41.984,105.783 L 40.803,104.842 L 17.445,100.293 L 15.758,99.352 L 15.758,94.803 L 12.000,93.862 L 12.000,98.411 L 12.000,99.352 L 12.000,103.901 L 12.000,104.842 L 12.000,109.390 L 12.000,110.332 L 12.000,114.880 L 12.000,115.822 L 12.000,120.370 L 12.000,121.312 L 12.000,125.860 L 12.000,126.801 L 12.000,131.350 L 12.000,132.291 L 12.000,136.840 L 12.000,137.781 L 12.000,142.330 L 12.000,143.271 L 12.000,147.820 L 12.000,148.761 L 12.000,153.309 L 12.000,154.251 L 12.000,158.799 L 12.000,159.741 L 12.000,164.289 L 12.000,165.231 L 12.000,169.779 L 12.000,170.720 L 12.000,175.269 L 12.000,176.210 L 12.000,180.759 L 12.000,181.700 L 12.000,186.249 L 12.000,187.190 L 12.000,191.739 L 12.000,192.680 L 12.000,197.228 L 12.000,198.170 L 12.000,202.718 L 12.000,203.660 L 12.000,208.208 L 12.000,209.150 L 12.000,213.698 L 12.000,214.639 L 12.000,219.188 L 12.000,220.129 L 12.000,224.678 Z" style="fill:none;stroke:#e6a0a0;stroke-width:0.6;stroke-dasharray:2,2" />
  </g>
<g inkscape:groupmode="layer" inkscape:label="lamelle-suivante" id="lamelle-suivante" sodipodi:insensitive="true" style="display:inline">
    <path d="M 12.000,216.283 L 12.000,218.531 L 12.000,220.521 L 19.980,220.521 L 22.759,218.273 L 28.889,216.283 L 30.914,214.036 L 33.285,212.046 L 34.879,209.798 L 36.579,207.808 L 37.874,205.561 L 39.204,203.571 L 40.270,201.323 L 41.347,199.333 L 42.225,197.086 L 43.111,195.096 L 43.827,192.848 L 44.557,190.858 L 45.132,188.611 L 45.729,186.621 L 46.173,184.373 L 46.653,182.383 L 46.976,180.136 L 47.349,178.146 L 47.557,175.898 L 47.831,173.908 L 47.928,171.661 L 48.108,169.671 L 48.095,167.423 L 48.184,165.433 L 48.060,163.186 L 48.060,161.196 L 47.824,158.948 L 47.735,156.958 L 47.383,154.711 L 47.203,152.721 L 46.727,150.473 L 46.453,148.483 L 45.845,146.236 L 45.472,144.246 L 44.718,141.998 L 44.238,140.008 L 43.317,137.761 L 42.720,135.771 L 41.603,133.523 L 40.873,131.533 L 39.513,129.286 L 38.627,127.296 L 36.943,125.048 L 35.865,123.058 L 33.698,120.811 L 32.368,118.821 L 29.288,116.573 L 27.588,114.583 L 20.501,112.336 L 18.130,110.346 L 18.130,108.098 L 12.000,106.108 L 12.000,108.356 L 12.000,110.346 L 12.000,112.593 L 12.000,114.583 L 12.000,116.831 L 12.000,118.821 L 12.000,121.068 L 12.000,123.058 L 12.000,125.306 L 12.000,127.296 L 12.000,129.543 L 12.000,131.533 L 12.000,133.781 L 12.000,135.771 L 12.000,138.018 L 12.000,140.008 L 12.000,142.256 L 12.000,144.246 L 12.000,146.493 L 12.000,148.483 L 12.000,150.731 L 12.000,152.721 L 12.000,154.968 L 12.000,156.958 L 12.000,159.206 L 12.000,161.196 L 12.000,163.443 L 12.000,165.433 L 12.000,167.681 L 12.000,169.671 L 12.000,171.918 L 12.000,173.908 L 12.000,176.156 L 12.000,178.146 L 12.000,180.393 L 12.000,182.383 L 12.000,184.631 L 12.000,186.621 L 12.000,188.868 L 12.000,190.858 L 12.000,193.106 L 12.000,195.096 L 12.000,197.343 L 12.000,199.333 L 12.000,201.581 L 12.000,203.571 L 12.000,205.818 L 12.000,207.808 L 12.000,210.056 L 12.000,212.046 L 12.000,214.293 Z" style="fill:none;stroke:#a0b8e6;stroke-width:0.6;stroke-dasharray:2,2" />
  </g>
<g inkscape:groupmode="layer" inkscape:label="lamelle-courante" id="lamelle-courante">
    <line x1="12.000" y1="260.617" x2="12.000" y2="12.000" style="stroke:#bbbbbb;stroke-width:0.4;stroke-dasharray:1,2" />
    <path d="M 12.000,220.090 L 12.000,223.183 L 12.000,224.613 L 31.216,224.613 L 36.294,224.613 L 39.857,221.520 L 41.625,220.090 L 44.433,216.997 L 45.721,215.566 L 48.004,212.473 L 49.018,211.043 L 50.896,207.950 L 51.721,206.520 L 53.267,203.427 L 53.945,201.997 L 55.208,198.904 L 55.767,197.473 L 56.777,194.380 L 57.233,192.950 L 58.014,189.857 L 58.380,188.427 L 58.946,185.334 L 59.229,183.904 L 59.592,180.811 L 59.797,179.380 L 59.962,176.287 L 60.094,174.857 L 60.064,171.764 L 60.126,170.334 L 59.900,167.241 L 59.892,165.811 L 59.467,162.718 L 59.388,161.287 L 58.756,158.194 L 58.606,156.764 L 57.756,153.671 L 57.532,152.241 L 56.446,149.148 L 56.143,147.718 L 54.797,144.625 L 54.410,143.194 L 52.766,140.101 L 52.286,138.671 L 50.292,135.578 L 49.706,134.148 L 47.277,131.055 L 46.566,129.625 L 43.557,126.532 L 42.692,125.101 L 38.812,122.008 L 37.741,120.578 L 32.196,117.485 L 30.817,116.055 L 18.470,112.962 L 16.510,111.532 L 16.510,108.439 L 12.000,107.008 L 12.000,110.101 L 12.000,111.532 L 12.000,114.625 L 12.000,116.055 L 12.000,119.148 L 12.000,120.578 L 12.000,123.671 L 12.000,125.101 L 12.000,128.194 L 12.000,129.625 L 12.000,132.718 L 12.000,134.148 L 12.000,137.241 L 12.000,138.671 L 12.000,141.764 L 12.000,143.194 L 12.000,146.287 L 12.000,147.718 L 12.000,150.811 L 12.000,152.241 L 12.000,155.334 L 12.000,156.764 L 12.000,159.857 L 12.000,161.287 L 12.000,164.380 L 12.000,165.811 L 12.000,168.904 L 12.000,170.334 L 12.000,173.427 L 12.000,174.857 L 12.000,177.950 L 12.000,179.380 L 12.000,182.473 L 12.000,183.904 L 12.000,186.997 L 12.000,188.427 L 12.000,191.520 L 12.000,192.950 L 12.000,196.043 L 12.000,197.473 L 12.000,200.566 L 12.000,201.997 L 12.000,205.090 L 12.000,206.520 L 12.000,209.613 L 12.000,211.043 L 12.000,214.136 L 12.000,215.566 L 12.000,218.659 Z" style="fill:#d8d8d8;fill-opacity:0.35;stroke:#000000;stroke-width:1.0" />
  </g>
</svg>