<?xml version='1.0' encoding='UTF-8'?>
<svg xmlns="http://www.w3.org/2000/svg" xmlns:inkscape="http://www.inkscape.org/namespaces/inkscape" xmlns:sodipodi="http://sodipodi.sourceforge.net/DTD/sodipodi-0.0.dtd" width="193.29mm" height="272.62mm" viewBox="0 0 193.29 272.62">
  <g inkscape:groupmode="layer" inkscape:label="lamelle-precedente" id="lamelle-precedente" sodipodi:insensitive="true" style="display:inline">
    <path d="M 12.000,197.820 L 12.000,198.193 L 12.000,205.387 L 14.284,205.014 L 54.718,197.820 L 56.015,197.448 L 80.156,190.254 L 81.026,189.882 L 97.077,182.688 L 97.743,182.315 L 109.996,175.122 L 110.531,174.749 L 120.355,167.555 L 120.793,167.183 L 128.837,159.989 L 129.198,159.616 L 135.828,152.423 L 136.124,152.050 L 141.569,144.856 L 141.809,144.484 L 146.221,137.290 L 146.411,136.917 L 149.895,129.724 L 150.038,129.351 L 152.667,122.157 L 152.765,121.785 L 154.589,114.591 L 154.645,114.219 L 155.696,107.025 L 155.711,106.652 L 156.006,99.458 L 155.980,99.086 L 155.525,91.892 L 155.457,91.520 L 154.245,84.326 L 154.134,83.953 L 152.143,76.760 L 151.988,76.387 L 149.183,69.193 L 148.979,68.821 L 145.306,61.627 L 145.050,61.254 L 140.430,54.061 L 140.116,53.688 L 134.435,46.494 L 134.054,46.122 L 127.148,38.928 L 121.174,38.928 L 12.000,38.928 L 12.000,39.301 L 12.000,46.494 L 12.000,46.867 L 12.000,54.061 L 12.000,54.433 L 12.000,61.627 L 12.000,61.999 L 12.000,69.193 L 12.000,69.566 L 12.000,76.760 L 12.000,77.132 L 12.000,84.326 L 12.000,84.698 L 12.000,91.892 L 12.000,92.265 L 12.000,99.458 L 12.000,99.831 L 12.000,107.025 L 12.000,107.397 L 12.000,114.591 L 12.000,114.964 L 12.000,122.157 L 12.000,122.530 L 12.000,129.724 L 12.000,130.096 L 12.000,137.290 L 12.000,137.662 L 12.000,144.856 L 12.000,145.229 L 12.000,152.423 L 12.000,152.795 L 12.000,159.989 L 12.000,160.361 L 12.000,167.555 L 12.000,167.928 L 12.000,175.122 L 12.000,175.494 L 12.000,182.688 L 12.000,183.060 L 12.000,190.254 L 12.000,190.627 Z" style="fill:none;stroke:#e6a0a0;stroke-width:0.6;stroke-dasharray:2,2" />
  </g>
<g inkscape:groupmode="layer" inkscape:label="lamelle-suivante" id="lamelle-suivante" sodipodi:insensitive="true" style="display:inline">
    <path d="M 12.000,189.949 L 12.000,195.566 L 12.000,197.107 L 34.551,191.490 L 39.341,189.949 L 53.617,184.331 L 56.698,182.790 L 66.085,177.173 L 68.105,175.632 L 75.249,170.015 L 76.785,168.474 L 82.505,162.856 L 83.735,161.315 L 88.416,155.698 L 89.422,154.157 L 93.279,148.540 L 94.109,146.998 L 97.278,141.381 L 97.959,139.840 L 100.530,134.223 L 101.082,132.682 L 103.115,127.064 L 103.552,125.523 L 105.089,119.906 L 105.420,118.365 L 106.492,112.748 L 106.723,111.206 L 107.347,105.589 L 107.482,104.048 L 107.671,98.431 L 107.713,96.890 L 107.468,91.272 L 107.417,89.731 L 106.735,84.114 L 106.590,82.573 L 105.460,76.956 L 105.218,75.414 L 103.619,69.797 L 103.277,68.256 L 101.178,62.639 L 100.729,61.098 L 98.085,55.480 L 97.520,53.939 L 94.267,48.322 L 93.571,46.781 L 89.616,41.164 L 88.769,39.623 L 25.564,39.623 L 12.000,39.623 L 12.000,45.240 L 12.000,46.781 L 12.000,52.398 L 12.000,53.939 L 12.000,59.556 L 12.000,61.098 L 12.000,66.715 L 12.000,68.256 L 12.000,73.873 L 12.000,75.414 L 12.000,81.032 L 12.000,82.573 L 12.000,88.190 L 12.000,89.731 L 12.000,95.348 L 12.000,96.890 L 12.000,102.507 L 12.000,104.048 L 12.000,109.665 L 12.000,111.206 L 12.000,116.824 L 12.000,118.365 L 12.000,123.982 L 12.000,125.523 L 12.000,131.140 L 12.000,132.682 L 12.000,138.299 L 12.000,139.840 L 12.000,145.457 L 12.000,146.998 L 12.000,152.616 L 12.000,154.157 L 12.000,159.774 L 12.000,161.315 L 12.000,166.932 L 12.000,168.474 L 12.000,174.091 L 12.000,175.632 L 12.000,181.249 L 12.000,182.790 L 12.000,188.407 Z" style="fill:none;stroke:#a0b8e6;stroke-width:0.6;stroke-dasharray:2,2" />
  </g>
<g inkscape:groupmode="layer" inkscape:label="lamelle-courante" id="lamelle-courante">
    <line x1="12.000" y1="260.617" x2="12.000" y2="12.000" style="stroke:#bbbbbb;stroke-width:0.4;stroke-dasharray:1,2" />
    <path d="M 12.000,195.543 L 12.000,202.299 L 12.000,202.923 L 45.124,196.167 L 47.630,195.543 L 68.107,188.787 L 69.694,188.162 L 83.219,181.406 L 84.262,180.782 L 94.569,174.026 L 95.362,173.402 L 103.619,166.646 L 104.255,166.022 L 111.013,159.266 L 111.533,158.642 L 117.104,151.886 L 117.532,151.262 L 122.108,144.506 L 122.460,143.882 L 126.170,137.126 L 126.455,136.501 L 129.387,129.745 L 129.613,129.121 L 131.828,122.365 L 131.999,121.741 L 133.541,114.985 L 133.660,114.361 L 134.554,107.605 L 134.624,106.981 L 134.886,100.225 L 134.907,99.601 L 134.543,92.845 L 134.516,92.221 L 133.518,85.465 L 133.442,84.840 L 131.794,78.084 L 131.669,77.460 L 129.340,70.704 L 129.163,70.080 L 126.110,63.324 L 125.877,62.700 L 122.034,55.944 L 121.740,55.320 L 117.014,48.564 L 116.652,47.940 L 110.905,41.184 L 110.466,40.560 L 19.023,40.560 L 12.000,40.560 L 12.000,47.316 L 12.000,47.940 L 12.000,54.696 L 12.000,55.320 L 12.000,62.076 L 12.000,62.700 L 12.000,69.456 L 12.000,70.080 L 12.000,76.836 L 12.000,77.460 L 12.000,84.216 L 12.000,84.840 L 12.000,91.596 L 12.000,92.221 L 12.000,98.977 L 12.000,99.601 L 12.000,106.357 L 12.000,106.981 L 12.000,113.737 L 12.000,114.361 L 12.000,121.117 L 12.000,121.741 L 12.000,128.497 L 12.000,129.121 L 12.000,135.877 L 12.000,136.501 L 12.000,143.257 L 12.000,143.882 L 12.000,150.638 L 12.000,151.262 L 12.000,158.018 L 12.000,158.642 L 12.000,165.398 L 12.000,166.022 L 12.000,172.778 L 12.000,173.402 L 12.000,180.158 L 12.000,180.782 L 12.000,187.538 L 12.000,188.162 L 12.000,194.919 Z" style="fill:#d8d8d8;fill-opacity:0.35;stroke:#000000;stroke-width:1.0" />
  </g>
</svg>