<svg xmlns="http://www.w3.org/2000/svg" width="256" height="256" viewBox="0 0 256 256">
  <defs>
    <linearGradient id="bg" x1="0" y1="0" x2="0" y2="1">
      <stop offset="0" stop-color="#1d4a4f"/>
      <stop offset="1" stop-color="#11272b"/>
    </linearGradient>
    <linearGradient id="wood" x1="0" y1="0" x2="0" y2="1">
      <stop offset="0"   stop-color="#f0c489"/>
      <stop offset="0.5" stop-color="#c88a4a"/>
      <stop offset="1"   stop-color="#7d4f24"/>
    </linearGradient>
  </defs>
  <rect x="6" y="6" width="244" height="244" rx="46" ry="46" fill="url(#bg)"/>
  <rect x="28" y="223.0" width="200" height="5" rx="2.5" fill="#0c1c1f"/>
  <rect x="33.0" y="131.8" width="11.8" height="88.2" rx="4.9" ry="4.9" fill="url(#wood)" stroke="#5a3a1c" stroke-width="1.3"/>
  <rect x="50.8" y="100.1" width="11.8" height="119.9" rx="4.9" ry="4.9" fill="url(#wood)" stroke="#5a3a1c" stroke-width="1.3"/>
  <rect x="68.7" y="82.2" width="11.8" height="137.8" rx="4.9" ry="4.9" fill="url(#wood)" stroke="#5a3a1c" stroke-width="1.3"/>
  <rect x="86.5" y="71.3" width="11.8" height="148.7" rx="4.9" ry="4.9" fill="url(#wood)" stroke="#5a3a1c" stroke-width="1.3"/>
  <rect x="104.3" y="65.2" width="11.8" height="154.8" rx="4.9" ry="4.9" fill="url(#wood)" stroke="#5a3a1c" stroke-width="1.3"/>
  <rect x="122.1" y="63.2" width="11.8" height="156.8" rx="4.9" ry="4.9" fill="url(#wood)" stroke="#5a3a1c" stroke-width="1.3"/>
  <rect x="139.9" y="65.2" width="11.8" height="154.8" rx="4.9" ry="4.9" fill="url(#wood)" stroke="#5a3a1c" stroke-width="1.3"/>
  <rect x="157.8" y="71.3" width="11.8" height="148.7" rx="4.9" ry="4.9" fill="url(#wood)" stroke="#5a3a1c" stroke-width="1.3"/>
  <rect x="175.6" y="82.2" width="11.8" height="137.8" rx="4.9" ry="4.9" fill="url(#wood)" stroke="#5a3a1c" stroke-width="1.3"/>
  <rect x="193.4" y="100.1" width="11.8" height="119.9" rx="4.9" ry="4.9" fill="url(#wood)" stroke="#5a3a1c" stroke-width="1.3"/>
  <rect x="211.2" y="131.8" width="11.8" height="88.2" rx="4.9" ry="4.9" fill="url(#wood)" stroke="#5a3a1c" stroke-width="1.3"/>
</svg>